<svg
  version="1.1"
  id="Layer_1"
  xmlns="http://www.w3.org/2000/svg"
  xmlns:xlink="http://www.w3.org/1999/xlink"
  x="0px"
  y="0px"
  viewBox="0 0 425.5 211.4"
  style=""
  xml:space="preserve"
>
  <g xmlns="http://www.w3.org/2000/svg" transform="translate(-31,-150)">
    <path
      d="M74.9,107.6h-31c-7.6,0-13.7,6.2-13.7,13.7v31c0,7.6,6.2,13.7,13.7,13.7h9.2c0,0.1,0.1,0.2,0.2,0.2l4.7,4.7   c0.7,0.7,1.9,0.7,2.6,0l4.7-4.7c0.1-0.1,0.1-0.2,0.2-0.2h9.5c7.6,0,13.7-6.2,13.7-13.7v-31C88.6,113.8,82.5,107.6,74.9,107.6z    M71.4,149.4c0,1.1-0.9,2-2,2H47.3v-1.3c0-1.5,0.4-2.2,0.9-3l16-19.8H48v-5h23.4v0.7c0,1.3-0.2,2.4-1,3.7l-0.1,0.1   c-0.2,0.2-0.6,0.7-0.8,1l-15,18.9h17.1V149.4z"
    />
  </g>
</svg>
