<svg xmlns="http://www.w3.org/2000/svg" xmlns:xlink="http://www.w3.org/1999/xlink" width="500" zoomAndPan="magnify" viewBox="0 0 375 374.999991" height="500" preserveAspectRatio="xMidYMid meet" version="1.0"><defs><g/><clipPath id="946c6480de"><path d="M 102 128 L 210 128 L 210 215.308594 L 102 215.308594 Z M 102 128 " clip-rule="nonzero"/></clipPath><clipPath id="41c0069fde"><path d="M 136 22.558594 L 273 22.558594 L 273 129 L 136 129 Z M 136 22.558594 " clip-rule="nonzero"/></clipPath><clipPath id="afa4c23636"><path d="M 187 53 L 307.945312 53 L 307.945312 215.308594 L 187 215.308594 Z M 187 53 " clip-rule="nonzero"/></clipPath><clipPath id="63a785d84c"><path d="M 67.195312 43 L 188 43 L 188 215.308594 L 67.195312 215.308594 Z M 67.195312 43 " clip-rule="nonzero"/></clipPath></defs><path fill="#2a2e30" d="M 138.152344 128.332031 C 138.152344 101.023438 160.265625 78.886719 187.550781 78.886719 C 214.832031 78.886719 236.949219 101.023438 236.949219 128.332031 C 236.949219 155.632812 214.832031 177.765625 187.550781 177.765625 C 160.265625 177.765625 138.152344 155.632812 138.152344 128.332031 Z M 132.269531 128.332031 C 132.269531 158.882812 157.019531 183.652344 187.550781 183.652344 C 218.078125 183.652344 242.828125 158.882812 242.828125 128.332031 C 242.828125 97.773438 218.078125 73.003906 187.550781 73.003906 C 157.019531 73.003906 132.269531 97.773438 132.269531 128.332031 " fill-opacity="1" fill-rule="nonzero"/><g clip-path="url(#946c6480de)"><path fill="#2a2e30" d="M 119.882812 128.332031 C 119.882812 165.726562 150.179688 196.050781 187.550781 196.050781 C 187.550781 196.050781 195.472656 206.101562 209.21875 215.3125 L 110.988281 215.3125 C 88.425781 174.347656 119.882812 128.332031 119.882812 128.332031 " fill-opacity="1" fill-rule="nonzero"/></g><g clip-path="url(#41c0069fde)"><path fill="#2a2e30" d="M 147.699219 22.554688 L 227.398438 22.554688 C 232.378906 22.554688 236.980469 25.210938 239.46875 29.527344 L 249.136719 46.28125 C 251.625 50.597656 256.222656 53.253906 261.207031 53.253906 L 269.195312 53.253906 C 280.914062 90.730469 255.214844 128.332031 255.214844 128.332031 C 255.214844 90.925781 224.921875 60.605469 187.550781 60.605469 C 187.550781 60.605469 167.761719 35.5 136.453125 28.269531 C 139.058594 24.703125 143.222656 22.554688 147.699219 22.554688 " fill-opacity="1" fill-rule="nonzero"/></g><g clip-path="url(#afa4c23636)"><path fill="#2a2e30" d="M 255.214844 128.332031 C 255.214844 128.332031 293.503906 98.101562 289.089844 53.253906 L 293.894531 53.253906 C 301.59375 53.253906 307.835938 59.5 307.835938 67.203125 L 307.835938 201.363281 C 307.835938 209.070312 301.59375 215.3125 293.894531 215.3125 L 239.960938 215.3125 C 210.367188 208.710938 187.550781 196.050781 187.550781 196.050781 C 224.921875 196.050781 255.214844 165.726562 255.214844 128.332031 " fill-opacity="1" fill-rule="nonzero"/></g><g clip-path="url(#63a785d84c)"><path fill="#2a2e30" d="M 81.203125 53.253906 L 113.894531 53.253906 C 118.871094 53.253906 123.476562 50.597656 125.964844 46.28125 L 127.410156 43.773438 C 159.320312 41.28125 187.550781 60.605469 187.550781 60.605469 C 150.179688 60.605469 119.882812 90.925781 119.882812 128.332031 C 119.882812 128.332031 74.707031 163.988281 88.152344 215.3125 L 81.203125 215.3125 C 73.503906 215.3125 67.265625 209.070312 67.265625 201.363281 L 67.265625 67.203125 C 67.265625 59.5 73.503906 53.253906 81.203125 53.253906 " fill-opacity="1" fill-rule="nonzero"/></g><path fill="#2a2e30" d="M 195.539062 169.007812 C 173.699219 169.007812 155.992188 151.289062 155.992188 129.433594 C 155.992188 107.574219 173.699219 89.855469 195.539062 89.855469 C 200.347656 89.855469 204.957031 90.714844 209.21875 92.289062 C 203.195312 88.988281 196.289062 87.113281 188.941406 87.113281 C 165.585938 87.113281 146.65625 106.058594 146.65625 129.433594 C 146.65625 152.804688 165.585938 171.75 188.941406 171.75 C 196.289062 171.75 203.195312 169.875 209.21875 166.574219 C 204.957031 168.148438 200.347656 169.007812 195.539062 169.007812 " fill-opacity="1" fill-rule="nonzero"/><path fill="#2a2e30" d="M 199.386719 157.867188 C 183.695312 157.867188 170.972656 145.136719 170.972656 129.433594 C 170.972656 113.726562 183.695312 100.992188 199.386719 100.992188 C 202.84375 100.992188 206.15625 101.613281 209.21875 102.742188 C 204.894531 100.371094 199.929688 99.023438 194.648438 99.023438 C 177.867188 99.023438 164.265625 112.636719 164.265625 129.433594 C 164.265625 146.226562 177.867188 159.84375 194.648438 159.84375 C 199.929688 159.84375 204.894531 158.492188 209.21875 156.117188 C 206.15625 157.25 202.84375 157.867188 199.386719 157.867188 " fill-opacity="1" fill-rule="nonzero"/><g fill="#2a2e30" fill-opacity="1"><g transform="translate(66.681725, 293.911489)"><g><path d="M 49.328125 -47.625 L 49.328125 0 L 38.296875 0 L 38.296875 -19.53125 L 16.671875 -19.53125 L 16.671875 0 L 5.640625 0 L 5.640625 -47.625 L 16.671875 -47.625 L 16.671875 -28.84375 L 38.296875 -28.84375 L 38.296875 -47.625 Z M 49.328125 -47.625 "/></g></g></g><g fill="#2a2e30" fill-opacity="1"><g transform="translate(135.108184, 293.911489)"><g><path d="M 42.515625 -8.84375 L 42.515625 0 L 5.640625 0 L 5.640625 -47.625 L 41.640625 -47.625 L 41.640625 -38.78125 L 16.59375 -38.78125 L 16.59375 -28.4375 L 38.703125 -28.4375 L 38.703125 -19.859375 L 16.59375 -19.859375 L 16.59375 -8.84375 Z M 42.515625 -8.84375 "/></g></g></g><g fill="#2a2e30" fill-opacity="1"><g transform="translate(194.216744, 293.911489)"><g><path d="M 49.328125 -47.625 L 49.328125 0 L 38.296875 0 L 38.296875 -19.53125 L 16.671875 -19.53125 L 16.671875 0 L 5.640625 0 L 5.640625 -47.625 L 16.671875 -47.625 L 16.671875 -28.84375 L 38.296875 -28.84375 L 38.296875 -47.625 Z M 49.328125 -47.625 "/></g></g></g><g fill="#2a2e30" fill-opacity="1"><g transform="translate(262.643197, 293.911489)"><g><path d="M 42.515625 -8.84375 L 42.515625 0 L 5.640625 0 L 5.640625 -47.625 L 41.640625 -47.625 L 41.640625 -38.78125 L 16.59375 -38.78125 L 16.59375 -28.4375 L 38.703125 -28.4375 L 38.703125 -19.859375 L 16.59375 -19.859375 L 16.59375 -8.84375 Z M 42.515625 -8.84375 "/></g></g></g><g fill="#2a2e30" fill-opacity="1"><g transform="translate(39.603635, 345.172337)"><g><path d="M 8.671875 -16.0625 C 10.753906 -16.0625 12.390625 -15.5625 13.578125 -14.5625 C 14.773438 -13.570312 15.375 -12.207031 15.375 -10.46875 C 15.375 -8.71875 14.773438 -7.34375 13.578125 -6.34375 C 12.390625 -5.351562 10.753906 -4.859375 8.671875 -4.859375 L 4.703125 -4.859375 L 4.703125 0 L 2.40625 0 L 2.40625 -16.0625 Z M 8.609375 -6.859375 C 10.054688 -6.859375 11.160156 -7.164062 11.921875 -7.78125 C 12.691406 -8.40625 13.078125 -9.300781 13.078125 -10.46875 C 13.078125 -11.632812 12.691406 -12.523438 11.921875 -13.140625 C 11.160156 -13.753906 10.054688 -14.0625 8.609375 -14.0625 L 4.703125 -14.0625 L 4.703125 -6.859375 Z M 8.609375 -6.859375 "/></g></g></g><g fill="#2a2e30" fill-opacity="1"><g transform="translate(66.278459, 345.172337)"><g><path d="M 16.234375 -16.0625 L 16.234375 0 L 13.9375 0 L 13.9375 -7.15625 L 4.703125 -7.15625 L 4.703125 0 L 2.40625 0 L 2.40625 -16.0625 L 4.703125 -16.0625 L 4.703125 -9.15625 L 13.9375 -9.15625 L 13.9375 -16.0625 Z M 16.234375 -16.0625 "/></g></g></g><g fill="#2a2e30" fill-opacity="1"><g transform="translate(95.019312, 345.172337)"><g><path d="M 9.65625 0.1875 C 8.039062 0.1875 6.582031 -0.164062 5.28125 -0.875 C 3.976562 -1.59375 2.957031 -2.578125 2.21875 -3.828125 C 1.476562 -5.085938 1.109375 -6.488281 1.109375 -8.03125 C 1.109375 -9.582031 1.476562 -10.984375 2.21875 -12.234375 C 2.957031 -13.484375 3.976562 -14.460938 5.28125 -15.171875 C 6.582031 -15.890625 8.039062 -16.25 9.65625 -16.25 C 11.269531 -16.25 12.722656 -15.890625 14.015625 -15.171875 C 15.316406 -14.460938 16.332031 -13.484375 17.0625 -12.234375 C 17.800781 -10.992188 18.171875 -9.59375 18.171875 -8.03125 C 18.171875 -6.46875 17.800781 -5.0625 17.0625 -3.8125 C 16.332031 -2.570312 15.316406 -1.59375 14.015625 -0.875 C 12.722656 -0.164062 11.269531 0.1875 9.65625 0.1875 Z M 9.65625 -1.859375 C 10.84375 -1.859375 11.90625 -2.125 12.84375 -2.65625 C 13.78125 -3.195312 14.519531 -3.9375 15.0625 -4.875 C 15.613281 -5.820312 15.890625 -6.875 15.890625 -8.03125 C 15.890625 -9.195312 15.613281 -10.25 15.0625 -11.1875 C 14.519531 -12.125 13.78125 -12.859375 12.84375 -13.390625 C 11.90625 -13.929688 10.84375 -14.203125 9.65625 -14.203125 C 8.476562 -14.203125 7.410156 -13.929688 6.453125 -13.390625 C 5.503906 -12.859375 4.753906 -12.125 4.203125 -11.1875 C 3.660156 -10.25 3.390625 -9.195312 3.390625 -8.03125 C 3.390625 -6.875 3.660156 -5.820312 4.203125 -4.875 C 4.753906 -3.9375 5.503906 -3.195312 6.453125 -2.65625 C 7.410156 -2.125 8.476562 -1.859375 9.65625 -1.859375 Z M 9.65625 -1.859375 "/></g></g></g><g fill="#2a2e30" fill-opacity="1"><g transform="translate(124.40296, 345.172337)"><g><path d="M 5.59375 -14.0625 L 0.09375 -14.0625 L 0.09375 -16.0625 L 13.375 -16.0625 L 13.375 -14.0625 L 7.875 -14.0625 L 7.875 0 L 5.59375 0 Z M 5.59375 -14.0625 "/></g></g></g><g fill="#2a2e30" fill-opacity="1"><g transform="translate(147.97872, 345.172337)"><g><path d="M 9.65625 0.1875 C 8.039062 0.1875 6.582031 -0.164062 5.28125 -0.875 C 3.976562 -1.59375 2.957031 -2.578125 2.21875 -3.828125 C 1.476562 -5.085938 1.109375 -6.488281 1.109375 -8.03125 C 1.109375 -9.582031 1.476562 -10.984375 2.21875 -12.234375 C 2.957031 -13.484375 3.976562 -14.460938 5.28125 -15.171875 C 6.582031 -15.890625 8.039062 -16.25 9.65625 -16.25 C 11.269531 -16.25 12.722656 -15.890625 14.015625 -15.171875 C 15.316406 -14.460938 16.332031 -13.484375 17.0625 -12.234375 C 17.800781 -10.992188 18.171875 -9.59375 18.171875 -8.03125 C 18.171875 -6.46875 17.800781 -5.0625 17.0625 -3.8125 C 16.332031 -2.570312 15.316406 -1.59375 14.015625 -0.875 C 12.722656 -0.164062 11.269531 0.1875 9.65625 0.1875 Z M 9.65625 -1.859375 C 10.84375 -1.859375 11.90625 -2.125 12.84375 -2.65625 C 13.78125 -3.195312 14.519531 -3.9375 15.0625 -4.875 C 15.613281 -5.820312 15.890625 -6.875 15.890625 -8.03125 C 15.890625 -9.195312 15.613281 -10.25 15.0625 -11.1875 C 14.519531 -12.125 13.78125 -12.859375 12.84375 -13.390625 C 11.90625 -13.929688 10.84375 -14.203125 9.65625 -14.203125 C 8.476562 -14.203125 7.410156 -13.929688 6.453125 -13.390625 C 5.503906 -12.859375 4.753906 -12.125 4.203125 -11.1875 C 3.660156 -10.25 3.390625 -9.195312 3.390625 -8.03125 C 3.390625 -6.875 3.660156 -5.820312 4.203125 -4.875 C 4.753906 -3.9375 5.503906 -3.195312 6.453125 -2.65625 C 7.410156 -2.125 8.476562 -1.859375 9.65625 -1.859375 Z M 9.65625 -1.859375 "/></g></g></g><g fill="#2a2e30" fill-opacity="1"><g transform="translate(177.36236, 345.172337)"><g/></g></g><g fill="#2a2e30" fill-opacity="1"><g transform="translate(193.63811, 345.172337)"><g><path d="M 7.09375 0.1875 C 5.882812 0.1875 4.71875 0 3.59375 -0.375 C 2.46875 -0.75 1.582031 -1.238281 0.9375 -1.84375 L 1.796875 -3.625 C 2.398438 -3.070312 3.179688 -2.625 4.140625 -2.28125 C 5.097656 -1.9375 6.082031 -1.765625 7.09375 -1.765625 C 8.425781 -1.765625 9.421875 -1.988281 10.078125 -2.4375 C 10.734375 -2.894531 11.0625 -3.5 11.0625 -4.25 C 11.0625 -4.800781 10.878906 -5.25 10.515625 -5.59375 C 10.160156 -5.9375 9.71875 -6.195312 9.1875 -6.375 C 8.664062 -6.5625 7.921875 -6.769531 6.953125 -7 C 5.742188 -7.289062 4.769531 -7.582031 4.03125 -7.875 C 3.289062 -8.164062 2.65625 -8.613281 2.125 -9.21875 C 1.59375 -9.820312 1.328125 -10.632812 1.328125 -11.65625 C 1.328125 -12.519531 1.550781 -13.296875 2 -13.984375 C 2.457031 -14.671875 3.144531 -15.21875 4.0625 -15.625 C 4.976562 -16.039062 6.117188 -16.25 7.484375 -16.25 C 8.429688 -16.25 9.363281 -16.125 10.28125 -15.875 C 11.195312 -15.632812 11.984375 -15.285156 12.640625 -14.828125 L 11.890625 -12.984375 C 11.210938 -13.421875 10.488281 -13.75 9.71875 -13.96875 C 8.957031 -14.1875 8.210938 -14.296875 7.484375 -14.296875 C 6.179688 -14.296875 5.203125 -14.054688 4.546875 -13.578125 C 3.898438 -13.109375 3.578125 -12.5 3.578125 -11.75 C 3.578125 -11.195312 3.757812 -10.75 4.125 -10.40625 C 4.5 -10.0625 4.957031 -9.789062 5.5 -9.59375 C 6.039062 -9.40625 6.78125 -9.207031 7.71875 -9 C 8.925781 -8.707031 9.894531 -8.414062 10.625 -8.125 C 11.363281 -7.832031 11.992188 -7.390625 12.515625 -6.796875 C 13.046875 -6.203125 13.3125 -5.398438 13.3125 -4.390625 C 13.3125 -3.546875 13.082031 -2.773438 12.625 -2.078125 C 12.164062 -1.378906 11.46875 -0.828125 10.53125 -0.421875 C 9.601562 -0.015625 8.457031 0.1875 7.09375 0.1875 Z M 7.09375 0.1875 "/></g></g></g><g fill="#2a2e30" fill-opacity="1"><g transform="translate(217.994378, 345.172337)"><g><path d="M 5.59375 -14.0625 L 0.09375 -14.0625 L 0.09375 -16.0625 L 13.375 -16.0625 L 13.375 -14.0625 L 7.875 -14.0625 L 7.875 0 L 5.59375 0 Z M 5.59375 -14.0625 "/></g></g></g><g fill="#2a2e30" fill-opacity="1"><g transform="translate(241.570138, 345.172337)"><g><path d="M 9.0625 0.1875 C 6.925781 0.1875 5.257812 -0.421875 4.0625 -1.640625 C 2.863281 -2.867188 2.265625 -4.632812 2.265625 -6.9375 L 2.265625 -16.0625 L 4.5625 -16.0625 L 4.5625 -7.03125 C 4.5625 -3.582031 6.070312 -1.859375 9.09375 -1.859375 C 10.5625 -1.859375 11.6875 -2.28125 12.46875 -3.125 C 13.25 -3.976562 13.640625 -5.28125 13.640625 -7.03125 L 13.640625 -16.0625 L 15.859375 -16.0625 L 15.859375 -6.9375 C 15.859375 -4.625 15.257812 -2.859375 14.0625 -1.640625 C 12.875 -0.421875 11.207031 0.1875 9.0625 0.1875 Z M 9.0625 0.1875 "/></g></g></g><g fill="#2a2e30" fill-opacity="1"><g transform="translate(269.828917, 345.172337)"><g><path d="M 2.40625 -16.0625 L 9.1875 -16.0625 C 10.882812 -16.0625 12.390625 -15.722656 13.703125 -15.046875 C 15.015625 -14.378906 16.035156 -13.4375 16.765625 -12.21875 C 17.492188 -11 17.859375 -9.601562 17.859375 -8.03125 C 17.859375 -6.457031 17.492188 -5.0625 16.765625 -3.84375 C 16.035156 -2.625 15.015625 -1.675781 13.703125 -1 C 12.390625 -0.332031 10.882812 0 9.1875 0 L 2.40625 0 Z M 9.046875 -2 C 10.347656 -2 11.488281 -2.25 12.46875 -2.75 C 13.457031 -3.257812 14.21875 -3.96875 14.75 -4.875 C 15.289062 -5.789062 15.5625 -6.84375 15.5625 -8.03125 C 15.5625 -9.226562 15.289062 -10.28125 14.75 -11.1875 C 14.21875 -12.101562 13.457031 -12.8125 12.46875 -13.3125 C 11.488281 -13.8125 10.347656 -14.0625 9.046875 -14.0625 L 4.703125 -14.0625 L 4.703125 -2 Z M 9.046875 -2 "/></g></g></g><g fill="#2a2e30" fill-opacity="1"><g transform="translate(298.891162, 345.172337)"><g><path d="M 2.40625 -16.0625 L 4.703125 -16.0625 L 4.703125 0 L 2.40625 0 Z M 2.40625 -16.0625 "/></g></g></g><g fill="#2a2e30" fill-opacity="1"><g transform="translate(316.108111, 345.172337)"><g><path d="M 9.65625 0.1875 C 8.039062 0.1875 6.582031 -0.164062 5.28125 -0.875 C 3.976562 -1.59375 2.957031 -2.578125 2.21875 -3.828125 C 1.476562 -5.085938 1.109375 -6.488281 1.109375 -8.03125 C 1.109375 -9.582031 1.476562 -10.984375 2.21875 -12.234375 C 2.957031 -13.484375 3.976562 -14.460938 5.28125 -15.171875 C 6.582031 -15.890625 8.039062 -16.25 9.65625 -16.25 C 11.269531 -16.25 12.722656 -15.890625 14.015625 -15.171875 C 15.316406 -14.460938 16.332031 -13.484375 17.0625 -12.234375 C 17.800781 -10.992188 18.171875 -9.59375 18.171875 -8.03125 C 18.171875 -6.46875 17.800781 -5.0625 17.0625 -3.8125 C 16.332031 -2.570312 15.316406 -1.59375 14.015625 -0.875 C 12.722656 -0.164062 11.269531 0.1875 9.65625 0.1875 Z M 9.65625 -1.859375 C 10.84375 -1.859375 11.90625 -2.125 12.84375 -2.65625 C 13.78125 -3.195312 14.519531 -3.9375 15.0625 -4.875 C 15.613281 -5.820312 15.890625 -6.875 15.890625 -8.03125 C 15.890625 -9.195312 15.613281 -10.25 15.0625 -11.1875 C 14.519531 -12.125 13.78125 -12.859375 12.84375 -13.390625 C 11.90625 -13.929688 10.84375 -14.203125 9.65625 -14.203125 C 8.476562 -14.203125 7.410156 -13.929688 6.453125 -13.390625 C 5.503906 -12.859375 4.753906 -12.125 4.203125 -11.1875 C 3.660156 -10.25 3.390625 -9.195312 3.390625 -8.03125 C 3.390625 -6.875 3.660156 -5.820312 4.203125 -4.875 C 4.753906 -3.9375 5.503906 -3.195312 6.453125 -2.65625 C 7.410156 -2.125 8.476562 -1.859375 9.65625 -1.859375 Z M 9.65625 -1.859375 "/></g></g></g></svg>